<svg version="1.1" id="Layer_1" xmlns="http://www.w3.org/2000/svg" xmlns:xlink="http://www.w3.org/1999/xlink" x="0px" y="0px"
	 width="100%" viewBox="0 0 1024 1024" enable-background="new 0 0 1024 1024" xml:space="preserve">
<path fill="#FDFDFD" opacity="1.000000" stroke="none" 
	d="
M668.000000,1025.000000 
	C445.333344,1025.000000 223.166672,1025.000000 1.000000,1025.000000 
	C1.000000,683.666687 1.000000,342.333344 1.000000,1.000000 
	C342.333344,1.000000 683.666687,1.000000 1025.000000,1.000000 
	C1025.000000,342.333344 1025.000000,683.666687 1025.000000,1025.000000 
	C906.166687,1025.000000 787.333313,1025.000000 668.000000,1025.000000 
M291.775757,584.337341 
	C287.990204,580.902039 283.720947,577.857910 280.545013,573.929688 
	C276.810944,569.311218 277.108002,563.756226 280.161682,559.566833 
	C282.847900,555.881592 286.699127,554.578979 290.669403,556.300720 
	C292.317902,557.015564 292.925385,560.131165 294.006256,562.154907 
	C292.407135,562.573303 290.689117,563.579102 289.234375,563.284546 
	C286.432861,562.717285 285.914917,563.989441 286.059265,566.155334 
	C286.279510,569.460022 289.631592,571.444702 293.563934,570.702148 
	C297.872711,569.888428 301.229523,566.110291 301.582520,561.677063 
	C302.002594,556.401062 298.318695,550.975952 293.257446,549.417053 
	C284.457642,546.706665 274.996033,551.623474 272.064026,560.430359 
	C268.823730,570.163269 273.419159,580.243103 284.582214,587.139954 
	C294.194244,591.147278 303.718811,595.387634 313.462921,599.042847 
	C317.163757,600.431152 320.909424,599.329102 323.031860,595.880737 
	C312.586456,592.168884 302.362640,588.535767 291.775757,584.337341 
M328.348877,756.833130 
	C341.846161,759.995422 355.343445,763.157776 369.439270,766.880737 
	C372.252167,767.098389 375.066681,767.296936 377.877716,767.536682 
	C398.616821,769.305176 419.335449,769.886780 440.902618,766.530212 
	C457.899902,764.401245 474.398224,760.387756 490.889587,753.328369 
	C533.707458,735.322144 570.517029,709.211609 598.758728,672.010681 
	C609.248230,658.193542 616.809265,642.736755 618.777527,624.120178 
	C619.511658,614.478516 619.190369,604.979309 614.974182,595.278320 
	C608.815918,580.081116 598.034363,570.054077 581.725464,565.195190 
	C574.552490,564.396484 567.366272,562.847290 560.209717,562.974304 
	C549.356262,563.166870 539.663391,567.583557 531.629272,573.582642 
	C526.082642,571.001770 521.152161,568.707520 515.611206,566.053162 
	C496.716125,559.974976 478.499207,560.931458 462.755920,573.811157 
	C440.299988,592.182617 440.975189,619.156494 448.142273,640.889587 
	C448.415100,641.716919 449.825256,642.802734 450.607697,642.729065 
	C457.460022,642.084534 464.290100,641.203247 471.562042,640.340576 
	C467.455322,630.159973 465.774048,620.601685 466.826477,610.623230 
	C468.127686,598.285950 475.676758,589.261536 487.575165,585.955811 
	C497.320404,583.248291 506.291321,585.651123 515.170898,590.834900 
	C514.650452,592.376831 514.162109,593.930542 513.604248,595.458801 
	C510.586853,603.724670 508.745972,612.108032 512.082153,620.697144 
	C514.067383,625.808228 517.999695,628.256897 521.850098,627.309631 
	C527.161621,626.002869 530.939697,621.331055 530.499634,616.209045 
	C529.811096,608.194153 532.544678,601.409851 538.084900,595.899719 
	C549.759949,584.288086 563.561340,581.905579 579.304565,587.794189 
	C588.285767,591.224792 592.818481,598.466003 595.804626,607.975342 
	C597.449524,619.455750 595.237183,630.382019 590.577759,641.515259 
	C585.402222,650.005371 580.950256,659.053955 574.911926,666.878296 
	C558.533142,688.101624 537.692932,704.387878 514.652649,717.775513 
	C503.767395,724.100342 492.238770,729.317993 480.240723,734.927002 
	C466.163330,739.308655 452.085938,743.690247 437.163239,747.998840 
	C416.956085,751.872437 396.542114,752.362793 375.355560,751.373718 
	C361.611877,749.035339 347.868164,746.696899 333.541840,744.033997 
	C320.487366,740.363220 308.561554,734.458984 297.510284,725.472046 
	C295.118774,720.790405 291.788483,716.347168 290.527222,711.378662 
	C287.725220,700.340942 297.260742,689.736511 308.105865,690.958008 
	C314.139771,691.637634 317.918793,696.042236 317.029327,701.358704 
	C316.307953,705.670532 312.305573,708.227966 308.673798,706.319397 
	C306.329956,705.087769 303.894196,703.997620 302.989197,706.995117 
	C302.365509,709.061035 302.906982,712.885925 304.332916,713.853271 
	C306.849060,715.560059 310.495697,716.519775 313.566132,716.306946 
	C320.943787,715.795471 326.543488,710.120422 327.809113,702.990601 
	C329.051331,695.992676 325.001373,687.742615 318.468170,683.962280 
	C309.290192,678.651611 296.056213,680.355957 287.825836,687.908386 
	C274.326324,700.296082 275.652496,721.206177 291.069946,735.003906 
	C301.547913,745.196045 314.409637,751.269653 328.348877,756.833130 
M389.020813,450.823029 
	C382.053314,446.409576 375.085815,441.996124 367.601624,437.123291 
	C347.963287,429.126160 329.595123,432.231842 311.115997,444.604065 
	C311.429230,439.034607 311.403595,434.613007 311.973022,430.269409 
	C313.762360,416.619812 319.064758,404.652435 329.803223,395.616028 
	C335.093384,391.164368 341.185150,388.678162 348.279419,389.965820 
	C352.780914,390.782837 355.909637,394.525177 355.942780,399.171204 
	C355.975769,403.793213 353.944092,407.221130 349.386414,408.701904 
	C344.847137,410.176697 341.601044,408.714905 339.822266,404.163971 
	C339.622528,403.652893 338.898254,403.346893 338.275940,402.827911 
	C334.619080,404.789307 333.930786,407.828674 334.788086,411.322021 
	C335.969391,416.135986 339.440369,418.443756 344.149475,418.991943 
	C354.590363,420.207336 364.019623,412.810242 365.001282,402.718933 
	C366.192627,390.471924 358.275269,380.779419 346.532745,380.050385 
	C336.280914,379.413910 328.023651,383.910706 321.033173,390.679291 
	C304.722595,406.472229 300.332245,426.565582 301.599426,448.298553 
	C301.898712,453.431549 301.434021,457.753906 299.026947,462.496918 
	C287.406952,485.393158 289.079163,508.337036 300.005157,531.766479 
	C306.569031,545.324463 315.350189,556.921631 329.270782,564.859924 
	C338.166748,570.045166 347.574524,573.621216 358.737518,574.269043 
	C369.534027,575.244690 379.432770,572.351379 388.701691,567.081421 
	C414.923584,552.172668 423.767487,518.735046 415.138794,495.201080 
	C411.858734,487.077057 408.578674,478.953064 404.940308,470.224152 
	C399.704163,463.959076 394.468048,457.694000 389.020813,450.823029 
M563.095459,447.865021 
	C570.399902,453.202454 577.704407,458.539886 585.676392,464.166290 
	C604.736511,472.279938 623.331848,470.906403 640.400696,459.533325 
	C669.378113,440.225525 678.452820,411.077576 678.846924,377.147888 
	C677.228027,368.765839 675.609131,360.383789 673.996826,351.233459 
	C669.888611,338.888580 664.528259,327.258453 654.769043,317.372406 
	C633.080444,295.401764 601.891968,293.065277 579.682068,311.966919 
	C561.668152,327.297577 551.195496,347.089447 545.976013,370.772308 
	C542.548035,388.185944 542.671997,405.404449 548.869141,423.028137 
	C551.900635,432.044891 556.171082,440.346680 563.095459,447.865021 
M308.748474,662.045410 
	C310.036102,662.341797 311.315430,662.681885 312.612671,662.927429 
	C321.690887,664.646240 330.772858,666.345520 339.752350,668.977600 
	C338.666168,689.417480 343.789520,708.220215 354.840179,726.150940 
	C357.523376,729.940186 359.996429,733.907166 362.983154,737.439819 
	C364.366028,739.075439 366.649536,740.652954 368.695801,740.913574 
	C385.935608,743.109619 403.191193,742.963440 420.511688,740.427185 
	C400.373566,736.465515 384.939301,726.039490 374.806030,707.325684 
	C369.129852,696.054565 366.142426,684.190796 366.538818,671.640808 
	C380.951294,671.640808 394.991821,671.640808 409.942230,671.780457 
	C432.631195,669.775696 455.320190,667.770935 478.824432,665.822266 
	C480.464081,665.536438 482.107086,665.268433 483.742889,664.962097 
	C502.798889,661.393188 521.450256,656.557678 538.567932,647.074463 
	C546.592773,642.628662 553.319275,636.784119 557.453186,628.392517 
	C562.781250,617.576843 560.556824,604.023071 551.817383,596.262939 
	C549.124146,598.477417 546.197205,600.625366 543.585876,603.105713 
	C541.100342,605.466553 540.350769,607.967651 541.186523,611.923279 
	C541.984314,615.699219 541.085815,620.945740 538.830200,623.985352 
	C535.701416,628.201599 531.023438,631.770935 526.282227,634.198425 
	C508.337646,643.386108 488.519562,646.229980 468.153137,649.963013 
	C465.529510,650.330261 462.912140,650.751160 460.281281,651.055908 
	C445.524780,652.765015 430.765076,654.446106 415.077820,655.998230 
	C393.052002,655.366943 371.026154,654.735657 348.235718,653.835510 
	C334.831238,651.953186 321.426788,650.070923 307.284515,647.908325 
	C291.522949,643.602905 275.761414,639.297485 259.553589,634.469727 
	C257.584106,633.577454 255.471420,632.907654 253.672775,631.749939 
	C248.801559,628.614685 243.565460,625.802551 239.393845,621.883240 
	C233.641724,616.479065 234.484451,609.765564 241.137421,605.509155 
	C244.859589,603.127747 249.125900,601.256287 253.404526,600.162231 
	C260.474640,598.354431 267.740509,597.287109 274.950348,596.063538 
	C277.655792,595.604431 279.893433,594.961670 279.852936,591.636597 
	C279.808380,587.976074 277.163208,587.224060 274.382233,587.266724 
	C270.235046,587.330322 266.068634,587.624390 261.956177,588.167236 
	C252.696945,589.389587 243.506088,590.944946 235.367737,596.027039 
	C224.879715,602.576355 220.849701,613.288208 225.891434,622.850281 
	C231.599289,633.675659 241.069000,640.171204 252.923141,644.705139 
	C270.461395,653.068604 289.018677,658.137085 308.748474,662.045410 
M721.222351,654.643066 
	C721.145386,654.096497 721.068420,653.549988 721.051758,652.206360 
	C718.168030,641.617126 714.630554,631.336975 707.106384,622.191589 
	C698.833191,608.950928 687.287781,599.139038 673.898987,590.292847 
	C665.017395,582.830566 656.135864,575.368286 646.983093,567.277771 
	C638.958923,555.866028 630.934814,544.454346 622.829224,532.342590 
	C621.216675,529.269592 619.637634,526.178528 617.985596,523.126892 
	C612.358398,512.732117 605.752808,503.117859 595.792175,495.350220 
	C585.674438,487.123840 574.814697,480.263336 561.429626,476.526337 
	C546.475220,472.027832 531.313049,470.705231 515.017761,473.559448 
	C501.480530,475.534546 489.003876,480.319916 477.390381,487.524811 
	C460.470398,498.021820 449.546173,513.481018 441.061615,531.002686 
	C432.229309,549.242432 420.520813,565.274231 404.488617,577.856445 
	C396.501770,584.124573 388.262268,590.074585 380.064514,596.069214 
	C368.749878,604.343079 359.175171,614.208191 352.535583,626.622009 
	C349.619965,632.073242 347.366852,637.878784 344.502014,644.210510 
	C353.801636,645.071777 361.891846,645.897339 370.000000,646.466919 
	C370.920959,646.531616 372.455383,645.366760 372.841461,644.419800 
	C378.862457,629.651917 390.366364,619.891052 403.154114,611.464233 
	C429.774750,593.921814 450.529663,571.228210 464.459473,542.483032 
	C472.219757,526.469116 482.935883,513.289124 499.731689,504.910828 
	C502.156250,503.954315 504.557159,502.931976 507.009247,502.052277 
	C520.791382,497.107758 534.847900,497.705597 549.559387,500.499268 
	C559.525391,502.890259 568.568787,507.269073 577.194641,513.779114 
	C585.887268,520.463562 591.800659,529.329529 596.914185,538.835632 
	C599.169983,543.029175 601.515808,547.174377 603.941772,552.025879 
	C610.088562,564.427795 618.115112,575.478333 628.111389,585.896973 
	C638.412109,594.588440 648.712830,603.279907 659.469910,612.456177 
	C670.178955,620.047791 680.559265,627.989380 688.128601,639.818359 
	C690.939392,646.866455 693.750244,653.914612 696.597961,661.875000 
	C696.795837,664.186218 696.832214,666.524597 697.216125,668.804504 
	C702.458252,699.938965 683.941711,729.958374 653.555237,737.821899 
	C643.740417,740.361755 633.209717,740.134766 622.179321,740.949097 
	C613.176086,739.493042 603.885986,738.976562 595.244080,736.337341 
	C585.001038,733.209045 575.333130,728.211304 565.368408,724.140320 
	C564.177917,723.653931 562.261414,723.292603 561.406738,723.897705 
	C554.545471,728.755676 547.858459,733.859619 540.026733,739.702576 
	C551.421997,744.922791 561.744385,750.237244 572.498779,754.448608 
	C591.260986,761.795837 610.576538,767.092834 631.920837,767.006714 
	C649.245911,767.424805 665.837891,764.261658 680.717163,755.171936 
	C714.018188,734.828308 725.538940,703.731262 723.407715,666.276733 
	C723.228577,663.128174 721.950439,660.042114 721.080505,656.280457 
	C721.034424,655.846558 720.988342,655.412720 721.222351,654.643066 
M408.662323,446.854980 
	C415.707520,455.393799 424.597870,461.224670 435.629425,465.255310 
	C459.160828,473.651733 479.977753,468.907837 497.279022,451.204529 
	C513.495544,434.611145 519.448364,413.864471 519.018066,390.092407 
	C518.912109,376.522278 516.455444,363.441956 510.844513,350.289886 
	C504.693207,335.758759 497.390167,322.043976 483.737854,312.037445 
	C473.393402,303.476166 461.168396,299.870789 447.597992,299.031128 
	C448.159637,297.358215 448.357330,296.213104 448.893158,295.257690 
	C455.843262,282.865448 465.140625,272.565552 477.830200,266.085968 
	C491.931854,258.885376 506.622223,254.661148 522.403809,263.393127 
	C527.525818,268.371826 529.479187,274.209534 526.884583,281.084320 
	C524.486877,287.437469 519.226624,290.122101 512.952881,290.900421 
	C509.075165,291.381470 505.115692,290.897247 502.835052,287.036072 
	C500.709869,283.437988 502.348846,280.506317 504.621002,277.480804 
	C505.403290,276.439148 505.300232,273.752350 504.471985,272.757599 
	C503.647095,271.766876 500.966064,271.180176 499.878387,271.795105 
	C497.821625,272.957886 495.837311,274.834808 494.676910,276.895813 
	C489.647369,285.828735 494.437988,296.422821 504.869843,299.981293 
	C516.263916,303.867981 529.586182,297.872742 534.917786,286.459198 
	C540.554993,274.391174 536.702942,261.732758 524.756836,254.063370 
	C515.699707,247.808441 505.459381,247.799057 495.434296,249.726578 
	C468.005951,255.000275 449.716583,272.139954 437.389465,296.379028 
	C435.860107,299.386200 434.124359,301.262909 430.747253,302.337982 
	C419.829224,305.813690 411.014862,312.529266 403.847626,321.384399 
	C391.483826,336.659882 385.622406,354.501099 384.198212,373.802277 
	C383.241577,386.766571 384.024506,399.694397 388.974670,412.785187 
	C392.989136,425.348389 398.859650,436.834839 408.662323,446.854980 
M653.800598,480.599762 
	C651.685913,487.060028 648.914612,493.387939 647.580566,500.005554 
	C643.699768,519.256714 646.161316,537.382263 659.141602,553.822083 
	C672.006104,570.908997 697.946167,579.599487 718.704163,573.321838 
	C743.223755,565.906494 757.777100,548.398132 765.807312,524.925293 
	C767.706604,519.373474 768.450073,513.353394 769.137695,507.479950 
	C769.856567,501.338715 769.867126,495.114532 770.318909,488.137939 
	C770.158020,487.089569 769.997070,486.041168 769.915771,484.195587 
	C768.789307,479.732849 767.662842,475.270111 766.378601,470.058228 
	C764.940796,466.974487 763.502991,463.890747 761.956665,460.109894 
	C758.623840,455.931763 757.706177,451.244995 757.603516,445.867584 
	C757.331299,431.612274 753.706726,418.149261 745.908569,405.273041 
	C739.876892,395.064575 731.884583,387.031158 720.245972,383.626312 
	C703.425232,378.705383 688.993835,390.689575 692.008423,406.812439 
	C694.431519,419.771759 708.488831,426.971436 718.337891,420.297424 
	C722.877258,417.221405 725.020508,411.834503 722.894531,407.856171 
	C722.136597,406.437866 720.329407,404.747894 718.981262,404.730560 
	C717.821411,404.715698 716.110962,406.702606 715.550720,408.154327 
	C713.456482,413.580994 708.699219,414.770233 704.481262,410.663208 
	C698.897034,405.225861 701.202393,395.155182 708.641052,392.829590 
	C715.409180,390.713623 721.309448,393.111572 726.072998,397.584045 
	C730.385803,401.633331 733.875366,406.559387 737.912109,411.812134 
	C742.574890,420.985687 746.195618,430.454407 746.628113,441.613678 
	C734.776123,434.091125 722.510132,431.049805 709.365479,433.709015 
	C682.663513,439.110962 665.739929,456.403198 653.800598,480.599762 
M506.627563,712.100769 
	C512.116760,708.417725 517.605957,704.734741 522.560181,701.410706 
	C513.207642,691.863037 504.167969,682.592957 495.045013,673.405701 
	C494.359314,672.715149 493.002167,672.157349 492.087799,672.311707 
	C484.292023,673.628235 476.526489,675.123901 468.237518,676.661255 
	C478.188721,690.506470 489.611542,702.286865 502.257660,712.901611 
	C502.929169,713.465271 504.746307,712.663940 506.627563,712.100769 
z"/>
<path fill="#3892D0" opacity="1.000000" stroke="none" 
	d="
M499.000854,504.978394 
	C482.935883,513.289124 472.219757,526.469116 464.459473,542.483032 
	C450.529663,571.228210 429.774750,593.921814 403.154114,611.464233 
	C390.366364,619.891052 378.862457,629.651917 372.841461,644.419800 
	C372.455383,645.366760 370.920959,646.531616 370.000000,646.466919 
	C361.891846,645.897339 353.801636,645.071777 344.502014,644.210510 
	C347.366852,637.878784 349.619965,632.073242 352.535583,626.622009 
	C359.175171,614.208191 368.749878,604.343079 380.064514,596.069214 
	C388.262268,590.074585 396.501770,584.124573 404.488617,577.856445 
	C420.520813,565.274231 432.229309,549.242432 441.061615,531.002686 
	C449.546173,513.481018 460.470398,498.021820 477.390381,487.524811 
	C489.003876,480.319916 501.480530,475.534546 515.504150,473.959534 
	C516.532959,476.320984 517.923157,478.376282 514.666687,479.549805 
	C513.890625,479.829437 513.157776,481.455688 513.157227,482.462952 
	C513.153564,489.376495 508.772430,493.129700 503.836395,496.988739 
	C501.543762,498.781158 500.571625,502.262634 499.000854,504.978394 
z"/>
<path fill="#5DCFF0" opacity="1.000000" stroke="none" 
	d="
M522.034851,262.805634 
	C506.622223,254.661148 491.931854,258.885376 477.830200,266.085968 
	C465.140625,272.565552 455.843262,282.865448 448.893158,295.257690 
	C448.357330,296.213104 448.159637,297.358215 447.597992,299.031128 
	C461.168396,299.870789 473.393402,303.476166 483.887482,312.757904 
	C483.694061,315.247589 482.861938,317.085205 483.097992,318.773468 
	C483.861664,324.234741 480.871704,327.321716 476.883240,330.110962 
	C474.749542,331.603119 472.894440,333.493622 470.609863,335.043091 
	C464.269714,332.019592 458.491455,328.141815 452.138031,326.527283 
	C441.972290,323.943909 439.443237,326.131500 437.342285,336.034546 
	C437.273834,336.357208 437.183929,336.675293 436.686951,337.004272 
	C433.512878,337.342407 430.755859,337.671814 427.958618,337.680573 
	C427.826019,336.753815 427.733673,336.147736 427.547241,334.924194 
	C420.142517,342.253662 415.540680,350.478638 412.982483,359.985016 
	C409.873566,371.537842 409.454285,383.202637 410.654297,395.035522 
	C407.974609,396.828705 405.606140,398.532196 403.330292,400.351532 
	C398.505371,404.208618 393.728760,408.126160 388.932343,412.018921 
	C384.024506,399.694397 383.241577,386.766571 384.198212,373.802277 
	C385.622406,354.501099 391.483826,336.659882 403.847626,321.384399 
	C411.014862,312.529266 419.829224,305.813690 430.747253,302.337982 
	C434.124359,301.262909 435.860107,299.386200 437.389465,296.379028 
	C449.716583,272.139954 468.005951,255.000275 495.434296,249.726578 
	C505.459381,247.799057 515.699707,247.808441 524.822266,254.669861 
	C523.936768,257.786102 522.985840,260.295868 522.034851,262.805634 
z"/>
<path fill="#5DCBEE" opacity="1.000000" stroke="none" 
	d="
M299.967865,531.043945 
	C289.079163,508.337036 287.406952,485.393158 299.026947,462.496918 
	C301.434021,457.753906 301.898712,453.431549 301.599426,448.298553 
	C300.332245,426.565582 304.722595,406.472229 321.033173,390.679291 
	C328.023651,383.910706 336.280914,379.413910 346.532745,380.050385 
	C358.275269,380.779419 366.192627,390.471924 365.001282,402.718933 
	C364.019623,412.810242 354.590363,420.207336 344.149475,418.991943 
	C339.440369,418.443756 335.969391,416.135986 334.788086,411.322021 
	C333.930786,407.828674 334.619080,404.789307 338.275940,402.827911 
	C338.898254,403.346893 339.622528,403.652893 339.822266,404.163971 
	C341.601044,408.714905 344.847137,410.176697 349.386414,408.701904 
	C353.944092,407.221130 355.975769,403.793213 355.942780,399.171204 
	C355.909637,394.525177 352.780914,390.782837 348.279419,389.965820 
	C341.185150,388.678162 335.093384,391.164368 329.803223,395.616028 
	C319.064758,404.652435 313.762360,416.619812 311.973022,430.269409 
	C311.403595,434.613007 311.429230,439.034607 311.115997,444.604065 
	C329.595123,432.231842 347.963287,429.126160 367.806763,437.738831 
	C366.453491,440.624023 364.835876,442.855652 363.348938,445.171173 
	C360.198395,450.077515 357.115997,455.027557 353.587128,459.973999 
	C341.446655,457.357635 331.590302,460.459503 323.614105,469.511322 
	C320.311554,473.259186 319.885468,477.055328 322.812683,481.237701 
	C324.413666,483.525146 325.757355,485.992645 327.077209,488.746246 
	C325.550629,491.545715 324.163879,493.977936 322.490326,496.209229 
	C320.776611,494.399597 319.349731,492.790802 317.922821,491.182037 
	C317.456451,491.377869 316.990051,491.573730 316.523651,491.769562 
	C317.717621,499.172668 318.911591,506.575775 319.748535,514.016479 
	C312.916962,519.717285 306.442413,525.380615 299.967865,531.043945 
z"/>
<path fill="#232E9E" opacity="1.000000" stroke="none" 
	d="
M623.006470,741.173462 
	C633.209717,740.134766 643.740417,740.361755 653.555237,737.821899 
	C683.941711,729.958374 702.458252,699.938965 697.216125,668.804504 
	C696.832214,666.524597 696.795837,664.186218 696.999023,661.433044 
	C699.439453,660.989197 701.544373,661.315674 703.505981,660.924011 
	C709.428162,659.741455 715.294678,658.279846 721.182861,656.927063 
	C721.950439,660.042114 723.228577,663.128174 723.407715,666.276733 
	C725.538940,703.731262 714.018188,734.828308 680.717163,755.171936 
	C665.837891,764.261658 649.245911,767.424805 631.363892,766.553345 
	C628.963745,765.728943 626.961548,765.685669 625.323669,764.891418 
	C623.800537,764.152832 621.570984,762.610962 621.573914,761.427490 
	C621.581360,758.396790 622.735291,755.382385 623.271973,752.333496 
	C623.515015,750.953308 623.450439,749.504456 623.402222,748.090942 
	C623.323364,745.783264 623.143677,743.479126 623.006470,741.173462 
z"/>
<path fill="#265CAF" opacity="1.000000" stroke="none" 
	d="
M770.187317,488.926605 
	C769.867126,495.114532 769.856567,501.338715 769.137695,507.479950 
	C768.450073,513.353394 767.706604,519.373474 765.807312,524.925293 
	C757.777100,548.398132 743.223755,565.906494 718.704163,573.321838 
	C697.946167,579.599487 672.006104,570.908997 659.115662,553.118774 
	C663.766296,550.421997 668.543823,548.630371 673.082764,546.361450 
	C675.941284,544.932617 678.442688,542.789246 681.408936,541.101868 
	C685.706604,543.538696 689.440063,546.752808 693.739868,547.975891 
	C708.618835,552.207947 721.119629,547.231079 730.614441,535.651184 
	C735.166016,530.100098 738.046753,523.178955 742.091187,516.910278 
	C748.243530,516.993591 749.182983,512.564880 750.301758,508.431183 
	C751.724548,503.174835 750.591858,501.387573 745.167053,499.664368 
	C745.048828,498.900177 745.009338,498.458923 745.261841,497.807922 
	C748.001221,492.357239 747.122192,490.770355 741.452515,489.954681 
	C740.575073,489.828461 739.764221,489.239777 738.957764,488.503357 
	C740.033386,485.096191 741.073669,482.050598 742.470581,479.053772 
	C743.515991,479.755096 744.679993,480.323212 744.813599,481.074585 
	C745.479736,484.820038 747.950745,485.202789 751.076355,485.031647 
	C755.075806,484.812683 757.021790,482.467773 758.982117,479.219757 
	C760.895081,476.050385 763.971008,473.582977 766.536377,470.807404 
	C767.662842,475.270111 768.789307,479.732849 769.458130,484.595581 
	C765.770508,484.879089 762.713013,484.917297 764.714844,489.819489 
	C766.645447,489.504486 768.416382,489.215546 770.187317,488.926605 
z"/>
<path fill="#2657AD" opacity="1.000000" stroke="none" 
	d="
M618.477905,625.016602 
	C616.809265,642.736755 609.248230,658.193542 598.758728,672.010681 
	C570.517029,709.211609 533.707458,735.322144 490.460175,753.021240 
	C488.961212,750.917053 488.275238,748.642517 486.747833,747.415283 
	C482.690125,744.154785 481.383484,739.870728 481.001617,735.037292 
	C492.238770,729.317993 503.767395,724.100342 514.652649,717.775513 
	C537.692932,704.387878 558.533142,688.101624 574.911926,666.878296 
	C580.950256,659.053955 585.402222,650.005371 591.112671,641.417358 
	C595.570801,644.260498 599.331055,647.471741 603.507935,649.992615 
	C604.927979,650.849609 608.104675,650.757690 609.255798,649.729858 
	C612.678284,646.673889 612.808350,640.050720 610.306946,635.868591 
	C608.998169,633.680420 607.871277,631.383545 606.771362,629.338623 
	C610.717346,626.495972 613.791870,623.374573 618.477905,625.016602 
z"/>
<path fill="#2C6CB7" opacity="1.000000" stroke="none" 
	d="
M746.013794,405.959381 
	C753.706726,418.149261 757.331299,431.612274 757.603516,445.867584 
	C757.706177,451.244995 758.623840,455.931763 761.988525,460.844116 
	C761.063660,462.205750 759.506409,463.567352 759.240662,463.349945 
	C755.511169,460.299530 752.348206,462.771973 750.732544,465.244202 
	C747.730835,469.837555 743.745422,470.284943 738.835815,469.786804 
	C727.064941,457.152252 712.348083,455.993774 697.243286,466.249908 
	C687.585510,472.807556 681.112183,481.907959 675.896057,491.926331 
	C670.222473,488.918243 664.744446,486.228790 659.305969,483.461731 
	C658.800232,483.204407 658.235535,482.462982 658.222961,481.933899 
	C658.142578,478.544464 656.113098,479.455902 654.211670,480.006378 
	C665.739929,456.403198 682.663513,439.110962 709.365479,433.709015 
	C722.510132,431.049805 734.776123,434.091125 746.628113,441.613678 
	C746.195618,430.454407 742.574890,420.985687 738.159729,411.307983 
	C740.942810,409.189026 743.478333,407.574219 746.013794,405.959381 
z"/>
<path fill="#43A4DB" opacity="1.000000" stroke="none" 
	d="
M546.247742,370.006287 
	C551.195496,347.089447 561.668152,327.297577 579.682068,311.966919 
	C601.891968,293.065277 633.080444,295.401764 654.491943,317.688477 
	C651.855164,319.106079 649.145386,319.785614 647.206299,321.394257 
	C642.732483,325.105713 638.632629,329.268097 634.091370,333.121948 
	C621.229797,323.479919 608.446655,323.169586 596.064941,332.481293 
	C592.276978,335.329987 589.102173,338.993896 585.159607,342.210205 
	C580.616577,342.363434 576.560547,342.590973 573.318176,342.772858 
	C570.262085,352.211853 567.594788,360.622467 564.747498,368.971680 
	C564.469421,369.787109 562.696472,370.951874 562.269104,370.725281 
	C557.666931,368.285400 553.848816,369.501678 551.080078,372.947418 
	C549.067627,371.722565 547.657654,370.864410 546.247742,370.006287 
z"/>
<path fill="#317DC4" opacity="1.000000" stroke="none" 
	d="
M678.701294,378.016968 
	C678.452820,411.077576 669.378113,440.225525 640.400696,459.533325 
	C623.331848,470.906403 604.736511,472.279938 585.379944,463.684631 
	C588.929810,459.683807 592.651184,456.013641 596.662537,452.693848 
	C599.804932,450.093201 602.890686,447.695099 602.460449,442.948334 
	C621.458252,444.346924 634.381042,435.433228 643.253235,420.135345 
	C646.677307,414.231323 648.519531,407.409973 651.430481,401.046600 
	C655.631042,403.343842 659.380615,405.814270 663.389221,407.748016 
	C664.888245,408.471161 667.259216,408.483337 668.706543,407.762909 
	C669.449646,407.392975 669.458557,404.579224 669.040161,403.082031 
	C668.476379,401.064575 667.218079,399.231079 666.191040,397.355164 
	C663.805847,392.998566 664.688965,390.852325 668.976685,388.339874 
	C670.724487,387.315735 671.632568,384.939667 673.112366,383.355927 
	C674.868530,381.476471 676.829224,379.788147 678.701294,378.016968 
z"/>
<path fill="#3282C6" opacity="1.000000" stroke="none" 
	d="
M514.958191,590.083679 
	C506.291321,585.651123 497.320404,583.248291 487.575165,585.955811 
	C475.676758,589.261536 468.127686,598.285950 466.826477,610.623230 
	C465.774048,620.601685 467.455322,630.159973 471.562042,640.340576 
	C464.290100,641.203247 457.460022,642.084534 450.607697,642.729065 
	C449.825256,642.802734 448.415100,641.716919 448.142273,640.889587 
	C440.975189,619.156494 440.299988,592.182617 462.755920,573.811157 
	C478.499207,560.931458 496.716125,559.974976 515.770325,566.602112 
	C515.242615,568.444946 514.450256,569.694702 513.887390,571.040466 
	C511.547852,576.633484 511.573242,576.644104 518.268433,576.439636 
	C517.133850,581.116028 516.046021,585.599854 514.958191,590.083679 
z"/>
<path fill="#41A7DD" opacity="1.000000" stroke="none" 
	d="
M518.867981,391.006287 
	C519.448364,413.864471 513.495544,434.611145 497.279022,451.204529 
	C479.977753,468.907837 459.160828,473.651733 435.364258,464.701752 
	C438.304993,461.139374 441.389984,457.987030 444.748138,455.158997 
	C448.711029,451.821777 454.088104,449.686890 454.442749,443.173096 
	C467.248627,442.795288 476.819977,437.380127 483.880463,427.288574 
	C489.459015,419.315155 491.920898,410.239960 493.844666,400.893219 
	C496.237305,401.909149 497.278412,405.865326 500.524933,402.920105 
	C503.670349,400.066650 506.639069,396.932678 510.123535,394.567352 
	C512.670471,392.838440 515.927490,392.155487 518.867981,391.006287 
z"/>
<path fill="#3786C9" opacity="1.000000" stroke="none" 
	d="
M354.656799,725.508606 
	C343.789520,708.220215 338.666168,689.417480 340.171661,668.469116 
	C347.228180,665.668762 347.488678,659.506897 349.000336,654.104370 
	C371.026154,654.735657 393.052002,655.366943 415.540192,656.457031 
	C417.969452,662.158569 416.003387,665.666443 411.319031,668.264343 
	C410.258698,668.852295 409.779205,670.487610 409.032349,671.640808 
	C394.991821,671.640808 380.951294,671.640808 366.538818,671.640808 
	C366.142426,684.190796 369.129852,696.054565 374.533630,707.825684 
	C372.541504,709.205322 370.504272,709.749756 369.158875,711.024414 
	C364.200836,715.721619 359.471893,720.660583 354.656799,725.508606 
z"/>
<path fill="#3079BF" opacity="1.000000" stroke="none" 
	d="
M515.064575,590.459290 
	C516.046021,585.599854 517.133850,581.116028 518.268433,576.439636 
	C511.573242,576.644104 511.547852,576.633484 513.887390,571.040466 
	C514.450256,569.694702 515.242615,568.444946 516.075562,566.782166 
	C521.152161,568.707520 526.082642,571.001770 531.629272,573.582642 
	C539.663391,567.583557 549.356262,563.166870 560.209717,562.974304 
	C567.366272,562.847290 574.552490,564.396484 581.841064,565.886963 
	C580.981873,568.760681 580.006958,570.942566 579.060669,573.060486 
	C580.568359,574.198303 581.695984,575.049255 582.585754,575.720764 
	C581.282166,579.812073 580.099182,583.524780 578.916199,587.237488 
	C563.561340,581.905579 549.759949,584.288086 538.084900,595.899719 
	C532.544678,601.409851 529.811096,608.194153 530.499634,616.209045 
	C530.939697,621.331055 527.161621,626.002869 521.850098,627.309631 
	C517.999695,628.256897 514.067383,625.808228 512.082153,620.697144 
	C508.745972,612.108032 510.586853,603.724670 513.604248,595.458801 
	C514.162109,593.930542 514.650452,592.376831 515.064575,590.459290 
z"/>
<path fill="#3FA1DA" opacity="1.000000" stroke="none" 
	d="
M414.923279,496.006744 
	C423.767487,518.735046 414.923584,552.172668 388.701691,567.081421 
	C379.432770,572.351379 369.534027,575.244690 358.406067,573.774414 
	C359.871674,570.154602 361.326904,566.758850 363.540131,563.963074 
	C367.588470,558.849304 371.320618,553.755920 371.194519,546.564880 
	C378.434937,543.841003 383.995789,539.614807 387.720764,533.090027 
	C391.837799,525.878601 392.663391,518.015076 392.862274,509.946411 
	C395.075897,509.254333 397.095947,508.855072 398.651337,507.782166 
	C404.161102,503.981384 409.512115,499.950470 414.923279,496.006744 
z"/>
<path fill="#2F72BB" opacity="1.000000" stroke="none" 
	d="
M469.017975,650.043274 
	C488.519562,646.229980 508.337646,643.386108 526.282227,634.198425 
	C531.023438,631.770935 535.701416,628.201599 538.830200,623.985352 
	C541.085815,620.945740 541.984314,615.699219 541.186523,611.923279 
	C540.350769,607.967651 541.100342,605.466553 543.585876,603.105713 
	C546.197205,600.625366 549.124146,598.477417 551.817383,596.262939 
	C560.556824,604.023071 562.781250,617.576843 557.453186,628.392517 
	C553.319275,636.784119 546.592773,642.628662 538.567932,647.074463 
	C521.450256,656.557678 502.798889,661.393188 483.742889,664.962097 
	C482.107086,665.268433 480.464081,665.536438 478.405334,665.417053 
	C477.111694,660.271851 475.916534,655.795288 471.083588,653.286438 
	C470.099152,652.775391 469.691498,651.153259 469.017975,650.043274 
z"/>
<path fill="#243AA2" opacity="1.000000" stroke="none" 
	d="
M622.592896,741.061279 
	C623.143677,743.479126 623.323364,745.783264 623.402222,748.090942 
	C623.450439,749.504456 623.515015,750.953308 623.271973,752.333496 
	C622.735291,755.382385 621.581360,758.396790 621.573914,761.427490 
	C621.570984,762.610962 623.800537,764.152832 625.323669,764.891418 
	C626.961548,765.685669 628.963745,765.728943 630.906006,766.467163 
	C610.576538,767.092834 591.260986,761.795837 572.498779,754.448608 
	C561.744385,750.237244 551.421997,744.922791 540.026733,739.702576 
	C547.858459,733.859619 554.545471,728.755676 561.406738,723.897705 
	C562.261414,723.292603 564.177917,723.653931 565.368408,724.140320 
	C575.333130,728.211304 585.001038,733.209045 595.244080,736.337341 
	C603.885986,738.976562 613.176086,739.493042 622.592896,741.061279 
z"/>
<path fill="#2B67B5" opacity="1.000000" stroke="none" 
	d="
M654.006104,480.303070 
	C656.113098,479.455902 658.142578,478.544464 658.222961,481.933899 
	C658.235535,482.462982 658.800232,483.204407 659.305969,483.461731 
	C664.744446,486.228790 670.222473,488.918243 675.881042,492.303955 
	C670.496887,509.735260 668.926514,526.071655 681.104309,540.966431 
	C678.442688,542.789246 675.941284,544.932617 673.082764,546.361450 
	C668.543823,548.630371 663.766296,550.421997 659.001953,552.806763 
	C646.161316,537.382263 643.699768,519.256714 647.580566,500.005554 
	C648.914612,493.387939 651.685913,487.060028 654.006104,480.303070 
z"/>
<path fill="#3FA1DA" opacity="1.000000" stroke="none" 
	d="
M546.111877,370.389282 
	C547.657654,370.864410 549.067627,371.722565 551.080078,372.947418 
	C553.848816,369.501678 557.666931,368.285400 562.269104,370.725281 
	C562.696472,370.951874 564.469421,369.787109 564.747498,368.971680 
	C567.594788,360.622467 570.262085,352.211853 573.318176,342.772858 
	C576.560547,342.590973 580.616577,342.363434 584.989868,342.522400 
	C581.230957,350.840607 576.405884,358.487152 573.251526,366.769928 
	C568.324951,379.706329 568.027710,393.332977 569.706299,406.995422 
	C560.389099,409.291992 555.352417,416.804779 548.806519,422.292725 
	C542.671997,405.404449 542.548035,388.185944 546.111877,370.389282 
z"/>
<path fill="#3786C9" opacity="1.000000" stroke="none" 
	d="
M499.366272,504.944611 
	C500.571625,502.262634 501.543762,498.781158 503.836395,496.988739 
	C508.772430,493.129700 513.153564,489.376495 513.157227,482.462952 
	C513.157776,481.455688 513.890625,479.829437 514.666687,479.549805 
	C517.923157,478.376282 516.532959,476.320984 515.934448,473.952881 
	C531.313049,470.705231 546.475220,472.027832 561.715149,477.163940 
	C561.459778,479.650055 561.303894,481.744293 560.309021,483.303101 
	C556.685547,488.980225 552.781738,494.478424 548.983582,500.044067 
	C534.847900,497.705597 520.791382,497.107758 507.009247,502.052277 
	C504.557159,502.931976 502.156250,503.954315 499.366272,504.944611 
z"/>
<path fill="#4088CA" opacity="1.000000" stroke="none" 
	d="
M290.777191,734.443237 
	C275.652496,721.206177 274.326324,700.296082 287.825836,687.908386 
	C296.056213,680.355957 309.290192,678.651611 318.468170,683.962280 
	C325.001373,687.742615 329.051331,695.992676 327.809113,702.990601 
	C326.543488,710.120422 320.943787,715.795471 313.566132,716.306946 
	C310.495697,716.519775 306.849060,715.560059 304.332916,713.853271 
	C302.906982,712.885925 302.365509,709.061035 302.989197,706.995117 
	C303.894196,703.997620 306.329956,705.087769 308.673798,706.319397 
	C312.305573,708.227966 316.307953,705.670532 317.029327,701.358704 
	C317.918793,696.042236 314.139771,691.637634 308.105865,690.958008 
	C297.260742,689.736511 287.725220,700.340942 290.527222,711.378662 
	C291.788483,716.347168 295.118774,720.790405 297.274048,725.751709 
	C292.107452,725.096252 290.157990,727.137390 290.953918,732.040466 
	C291.079071,732.811462 290.845123,733.640869 290.777191,734.443237 
z"/>
<path fill="#2B67B5" opacity="1.000000" stroke="none" 
	d="
M622.910645,533.042603 
	C630.934814,544.454346 638.958923,555.866028 646.734375,567.620605 
	C645.205627,568.587280 643.641968,568.928711 642.692993,569.882019 
	C637.663269,574.934692 632.787903,580.140991 627.859131,585.294128 
	C618.115112,575.478333 610.088562,564.427795 604.051147,551.332886 
	C605.859070,546.572937 607.793762,542.584290 609.176453,538.412537 
	C610.163696,535.433899 611.947388,535.021179 614.704407,534.886414 
	C617.463257,534.751587 620.177063,533.695068 622.910645,533.042603 
z"/>
<path fill="#2C6CB7" opacity="1.000000" stroke="none" 
	d="
M439.988647,766.504211 
	C419.335449,769.886780 398.616821,769.305176 377.877716,767.536682 
	C375.066681,767.296936 372.252167,767.098389 369.322937,766.290283 
	C373.354828,761.959290 376.697021,757.823303 376.059753,751.734436 
	C396.542114,752.362793 416.956085,751.872437 437.593567,748.447510 
	C438.678833,754.765503 439.333740,760.634888 439.988647,766.504211 
z"/>
<path fill="#2F72BB" opacity="1.000000" stroke="none" 
	d="
M622.869934,532.692627 
	C620.177063,533.695068 617.463257,534.751587 614.704407,534.886414 
	C611.947388,535.021179 610.163696,535.433899 609.176453,538.412537 
	C607.793762,542.584290 605.859070,546.572937 603.990601,550.990723 
	C601.515808,547.174377 599.169983,543.029175 596.914185,538.835632 
	C591.800659,529.329529 585.887268,520.463562 577.267883,513.186646 
	C581.178772,510.371490 585.451477,508.646088 588.726501,505.780426 
	C591.748169,503.136414 593.699158,499.268799 596.121704,495.940186 
	C605.752808,503.117859 612.358398,512.732117 617.985596,523.126892 
	C619.637634,526.178528 621.216675,529.269592 622.869934,532.692627 
z"/>
<path fill="#4FB9E8" opacity="1.000000" stroke="none" 
	d="
M252.432922,644.126953 
	C241.069000,640.171204 231.599289,633.675659 225.891434,622.850281 
	C220.849701,613.288208 224.879715,602.576355 235.367737,596.027039 
	C243.506088,590.944946 252.696945,589.389587 261.956177,588.167236 
	C266.068634,587.624390 270.235046,587.330322 274.382233,587.266724 
	C277.163208,587.224060 279.808380,587.976074 279.852936,591.636597 
	C279.893433,594.961670 277.655792,595.604431 274.950348,596.063538 
	C267.740509,597.287109 260.474640,598.354431 253.404526,600.162231 
	C249.125900,601.256287 244.859589,603.127747 241.137421,605.509155 
	C234.484451,609.765564 233.641724,616.479065 239.393845,621.883240 
	C243.565460,625.802551 248.801559,628.614685 253.672775,631.749939 
	C255.471420,632.907654 257.584106,633.577454 259.578735,635.008911 
	C258.443054,637.037720 257.320374,638.559143 256.110413,640.007690 
	C254.931015,641.419556 253.662369,642.756897 252.432922,644.126953 
z"/>
<path fill="#2C6CB7" opacity="1.000000" stroke="none" 
	d="
M506.328857,712.299438 
	C504.746307,712.663940 502.929169,713.465271 502.257660,712.901611 
	C489.611542,702.286865 478.188721,690.506470 468.237518,676.661255 
	C476.526489,675.123901 484.292023,673.628235 492.087799,672.311707 
	C493.002167,672.157349 494.359314,672.715149 495.045013,673.405701 
	C504.167969,682.592957 513.207642,691.863037 522.560181,701.410706 
	C517.605957,704.734741 512.116760,708.417725 506.328857,712.299438 
z"/>
<path fill="#2657AD" opacity="1.000000" stroke="none" 
	d="
M674.277649,590.862000 
	C687.287781,599.139038 698.833191,608.950928 706.786133,622.597656 
	C700.279175,628.389587 694.092468,633.775452 687.905823,639.161377 
	C680.559265,627.989380 670.178955,620.047791 659.458984,611.950317 
	C663.738037,609.754517 666.739868,607.173401 668.247681,602.404724 
	C669.536377,598.329102 672.214233,594.692688 674.277649,590.862000 
z"/>
<path fill="#3892D0" opacity="1.000000" stroke="none" 
	d="
M634.381104,333.247589 
	C638.632629,329.268097 642.732483,325.105713 647.206299,321.394257 
	C649.145386,319.785614 651.855164,319.106079 654.619263,317.999176 
	C664.528259,327.258453 669.888611,338.888580 673.722351,351.815491 
	C668.835571,356.562744 664.039307,360.546631 659.683716,364.964996 
	C657.282654,367.400665 655.037109,368.414001 651.681519,366.684021 
	C648.994141,353.673615 643.234314,342.662415 634.381104,333.247589 
z"/>
<path fill="#265CAF" opacity="1.000000" stroke="none" 
	d="
M674.088318,590.577393 
	C672.214233,594.692688 669.536377,598.329102 668.247681,602.404724 
	C666.739868,607.173401 663.738037,609.754517 659.230835,611.707947 
	C648.712830,603.279907 638.412109,594.588440 627.985229,585.595581 
	C632.787903,580.140991 637.663269,574.934692 642.692993,569.882019 
	C643.641968,568.928711 645.205627,568.587280 646.869995,567.934753 
	C656.135864,575.368286 665.017395,582.830566 674.088318,590.577393 
z"/>
<path fill="#3079BF" opacity="1.000000" stroke="none" 
	d="
M745.961182,405.616211 
	C743.478333,407.574219 740.942810,409.189026 738.067627,410.951355 
	C733.875366,406.559387 730.385803,401.633331 726.072998,397.584045 
	C721.309448,393.111572 715.409180,390.713623 708.641052,392.829590 
	C701.202393,395.155182 698.897034,405.225861 704.481262,410.663208 
	C708.699219,414.770233 713.456482,413.580994 715.550720,408.154327 
	C716.110962,406.702606 717.821411,404.715698 718.981262,404.730560 
	C720.329407,404.747894 722.136597,406.437866 722.894531,407.856171 
	C725.020508,411.834503 722.877258,417.221405 718.337891,420.297424 
	C708.488831,426.971436 694.431519,419.771759 692.008423,406.812439 
	C688.993835,390.689575 703.425232,378.705383 720.245972,383.626312 
	C731.884583,387.031158 739.876892,395.064575 745.961182,405.616211 
z"/>
<path fill="#4FB9E8" opacity="1.000000" stroke="none" 
	d="
M299.986511,531.405212 
	C306.442413,525.380615 312.916962,519.717285 319.907104,514.325134 
	C325.246185,526.360046 332.144470,536.485779 343.029297,543.739014 
	C342.405579,544.754089 341.993896,545.524963 341.369843,546.036804 
	C335.402771,550.930847 331.496399,557.218872 328.830719,564.363159 
	C315.350189,556.921631 306.569031,545.324463 299.986511,531.405212 
z"/>
<path fill="#3079BF" opacity="1.000000" stroke="none" 
	d="
M354.748474,725.829773 
	C359.471893,720.660583 364.200836,715.721619 369.158875,711.024414 
	C370.504272,709.749756 372.541504,709.205322 374.577179,708.183838 
	C384.939301,726.039490 400.373566,736.465515 420.511688,740.427185 
	C403.191193,742.963440 385.935608,743.109619 368.695801,740.913574 
	C366.649536,740.652954 364.366028,739.075439 362.983154,737.439819 
	C359.996429,733.907166 357.523376,729.940186 354.748474,725.829773 
z"/>
<path fill="#317DC4" opacity="1.000000" stroke="none" 
	d="
M468.585571,650.003174 
	C469.691498,651.153259 470.099152,652.775391 471.083588,653.286438 
	C475.916534,655.795288 477.111694,660.271851 477.997681,665.389038 
	C455.320190,667.770935 432.631195,669.775696 409.487305,671.710632 
	C409.779205,670.487610 410.258698,668.852295 411.319031,668.264343 
	C416.003387,665.666443 417.969452,662.158569 416.004517,656.526306 
	C430.765076,654.446106 445.524780,652.765015 460.281281,651.055908 
	C462.912140,650.751160 465.529510,650.330261 468.585571,650.003174 
z"/>
<path fill="#52C1EB" opacity="1.000000" stroke="none" 
	d="
M470.913635,335.204376 
	C472.894440,333.493622 474.749542,331.603119 476.883240,330.110962 
	C480.871704,327.321716 483.861664,324.234741 483.097992,318.773468 
	C482.861938,317.085205 483.694061,315.247589 484.072296,313.022888 
	C497.390167,322.043976 504.693207,335.758759 510.491638,350.655090 
	C506.850952,353.488434 503.095490,355.536530 500.399841,358.536774 
	C497.387177,361.889832 495.129395,365.778870 489.538422,364.788635 
	C485.335510,353.405334 479.645935,343.351166 470.913635,335.204376 
z"/>
<path fill="#47B2E3" opacity="1.000000" stroke="none" 
	d="
M489.774231,365.038025 
	C495.129395,365.778870 497.387177,361.889832 500.399841,358.536774 
	C503.095490,355.536530 506.850952,353.488434 510.507294,351.016266 
	C516.455444,363.441956 518.912109,376.522278 518.942993,390.549316 
	C515.927490,392.155487 512.670471,392.838440 510.123535,394.567352 
	C506.639069,396.932678 503.670349,400.066650 500.524933,402.920105 
	C497.278412,405.865326 496.237305,401.909149 493.870728,400.440369 
	C494.816315,388.013855 492.448212,376.509552 489.774231,365.038025 
z"/>
<path fill="#52C1EB" opacity="1.000000" stroke="none" 
	d="
M388.953491,412.402039 
	C393.728760,408.126160 398.505371,404.208618 403.330292,400.351532 
	C405.606140,398.532196 407.974609,396.828705 410.682251,395.425232 
	C415.505188,405.909698 419.946960,416.041656 424.291199,426.573059 
	C422.743469,429.687775 421.722137,432.777802 419.748871,435.035919 
	C416.260284,439.028076 412.192261,442.513824 408.366730,446.211517 
	C398.859650,436.834839 392.989136,425.348389 388.953491,412.402039 
z"/>
<path fill="#265CAF" opacity="1.000000" stroke="none" 
	d="
M440.445618,766.517212 
	C439.333740,760.634888 438.678833,754.765503 438.016235,748.484009 
	C452.085938,743.690247 466.163330,739.308655 480.621155,734.982178 
	C481.383484,739.870728 482.690125,744.154785 486.747833,747.415283 
	C488.275238,748.642517 488.961212,750.917053 490.082367,753.104248 
	C474.398224,760.387756 457.899902,764.401245 440.445618,766.517212 
z"/>
<path fill="#317DC4" opacity="1.000000" stroke="none" 
	d="
M595.956909,495.645203 
	C593.699158,499.268799 591.748169,503.136414 588.726501,505.780426 
	C585.451477,508.646088 581.178772,510.371490 577.119507,512.890625 
	C568.568787,507.269073 559.525391,502.890259 549.271484,500.271667 
	C552.781738,494.478424 556.685547,488.980225 560.309021,483.303101 
	C561.303894,481.744293 561.459778,479.650055 562.002197,477.398010 
	C574.814697,480.263336 585.674438,487.123840 595.956909,495.645203 
z"/>
<path fill="#3786C9" opacity="1.000000" stroke="none" 
	d="
M651.885559,366.992340 
	C655.037109,368.414001 657.282654,367.400665 659.683716,364.964996 
	C664.039307,360.546631 668.835571,356.562744 673.719116,352.199615 
	C675.609131,360.383789 677.228027,368.765839 678.774109,377.582428 
	C676.829224,379.788147 674.868530,381.476471 673.112366,383.355927 
	C671.632568,384.939667 670.724487,387.315735 668.976685,388.339874 
	C664.688965,390.852325 663.805847,392.998566 666.191040,397.355164 
	C667.218079,399.231079 668.476379,401.064575 669.040161,403.082031 
	C669.458557,404.579224 669.449646,407.392975 668.706543,407.762909 
	C667.259216,408.483337 664.888245,408.471161 663.389221,407.748016 
	C659.380615,405.814270 655.631042,403.343842 651.399658,400.627930 
	C651.309082,389.110229 651.597290,378.051300 651.885559,366.992340 
z"/>
<path fill="#265CAF" opacity="1.000000" stroke="none" 
	d="
M618.627686,624.568359 
	C613.791870,623.374573 610.717346,626.495972 606.771362,629.338623 
	C607.871277,631.383545 608.998169,633.680420 610.306946,635.868591 
	C612.808350,640.050720 612.678284,646.673889 609.255798,649.729858 
	C608.104675,650.757690 604.927979,650.849609 603.507935,649.992615 
	C599.331055,647.471741 595.570801,644.260498 591.351990,641.172485 
	C595.237183,630.382019 597.449524,619.455750 596.169556,607.525146 
	C599.299988,606.271423 602.434387,606.036133 604.746704,604.534729 
	C608.445374,602.133179 611.598511,598.891418 614.982239,596.004822 
	C619.190369,604.979309 619.511658,614.478516 618.627686,624.568359 
z"/>
<path fill="#47B2E3" opacity="1.000000" stroke="none" 
	d="
M408.514526,446.533264 
	C412.192261,442.513824 416.260284,439.028076 419.748871,435.035919 
	C421.722137,432.777802 422.743469,429.687775 424.550415,426.821167 
	C432.560577,435.791504 441.916809,441.922516 454.012207,443.243317 
	C454.088104,449.686890 448.711029,451.821777 444.748138,455.158997 
	C441.389984,457.987030 438.304993,461.139374 435.057922,464.480225 
	C424.597870,461.224670 415.707520,455.393799 408.514526,446.533264 
z"/>
<path fill="#5DCBEE" opacity="1.000000" stroke="none" 
	d="
M522.219360,263.099365 
	C522.985840,260.295868 523.936768,257.786102 525.048706,254.916779 
	C536.702942,261.732758 540.554993,274.391174 534.917786,286.459198 
	C529.586182,297.872742 516.263916,303.867981 504.869843,299.981293 
	C494.437988,296.422821 489.647369,285.828735 494.676910,276.895813 
	C495.837311,274.834808 497.821625,272.957886 499.878387,271.795105 
	C500.966064,271.180176 503.647095,271.766876 504.471985,272.757599 
	C505.300232,273.752350 505.403290,276.439148 504.621002,277.480804 
	C502.348846,280.506317 500.709869,283.437988 502.835052,287.036072 
	C505.115692,290.897247 509.075165,291.381470 512.952881,290.900421 
	C519.226624,290.122101 524.486877,287.437469 526.884583,281.084320 
	C529.479187,274.209534 527.525818,268.371826 522.219360,263.099365 
z"/>
<path fill="#2C6CB7" opacity="1.000000" stroke="none" 
	d="
M614.978210,595.641602 
	C611.598511,598.891418 608.445374,602.133179 604.746704,604.534729 
	C602.434387,606.036133 599.299988,606.271423 596.163452,607.058655 
	C592.818481,598.466003 588.285767,591.224792 579.110352,587.515869 
	C580.099182,583.524780 581.282166,579.812073 582.585754,575.720764 
	C581.695984,575.049255 580.568359,574.198303 579.060669,573.060486 
	C580.006958,570.942566 580.981873,568.760681 582.005493,566.209717 
	C598.034363,570.054077 608.815918,580.081116 614.978210,595.641602 
z"/>
<path fill="#41A7DD" opacity="1.000000" stroke="none" 
	d="
M329.050751,564.611572 
	C331.496399,557.218872 335.402771,550.930847 341.369843,546.036804 
	C341.993896,545.524963 342.405579,544.754089 343.382690,543.899048 
	C352.490417,548.140991 361.549225,548.940857 370.945038,546.800171 
	C371.320618,553.755920 367.588470,558.849304 363.540131,563.963074 
	C361.326904,566.758850 359.871674,570.154602 358.037323,573.638733 
	C347.574524,573.621216 338.166748,570.045166 329.050751,564.611572 
z"/>
<path fill="#243AA2" opacity="1.000000" stroke="none" 
	d="
M688.017212,639.489868 
	C694.092468,633.775452 700.279175,628.389587 706.830933,622.951538 
	C714.630554,631.336975 718.168030,641.617126 720.798828,652.745911 
	C720.677979,653.849915 720.810120,654.414368 720.942261,654.978821 
	C720.988342,655.412720 721.034424,655.846558 721.131714,656.603760 
	C715.294678,658.279846 709.428162,659.741455 703.505981,660.924011 
	C701.544373,661.315674 699.439453,660.989197 696.980530,660.976929 
	C693.750244,653.914612 690.939392,646.866455 688.017212,639.489868 
z"/>
<path fill="#43A4DB" opacity="1.000000" stroke="none" 
	d="
M252.678024,644.416016 
	C253.662369,642.756897 254.931015,641.419556 256.110413,640.007690 
	C257.320374,638.559143 258.443054,637.037720 259.801880,635.270142 
	C275.761414,639.297485 291.522949,643.602905 307.652313,648.419739 
	C308.885651,651.099548 309.751190,653.267944 310.084869,654.103821 
	C309.184814,657.446899 308.605896,659.597107 308.026978,661.747375 
	C289.018677,658.137085 270.461395,653.068604 252.678024,644.416016 
z"/>
<path fill="#3892D0" opacity="1.000000" stroke="none" 
	d="
M548.837830,422.660431 
	C555.352417,416.804779 560.389099,409.291992 569.743408,407.387817 
	C573.946655,415.524780 577.725952,423.277039 581.321045,431.399231 
	C576.870911,434.981934 572.513062,438.081970 568.378174,441.455292 
	C566.324768,443.130554 564.680786,445.307587 562.851624,447.257629 
	C556.171082,440.346680 551.900635,432.044891 548.837830,422.660431 
z"/>
<path fill="#3786C9" opacity="1.000000" stroke="none" 
	d="
M562.973511,447.561310 
	C564.680786,445.307587 566.324768,443.130554 568.378174,441.455292 
	C572.513062,438.081970 576.870911,434.981934 581.598206,431.633057 
	C587.406250,437.582214 594.479553,440.669281 601.999634,442.980530 
	C602.890686,447.695099 599.804932,450.093201 596.662537,452.693848 
	C592.651184,456.013641 588.929810,459.683807 585.046204,463.540161 
	C577.704407,458.539886 570.399902,453.202454 562.973511,447.561310 
z"/>
<path fill="#47B2E3" opacity="1.000000" stroke="none" 
	d="
M415.031036,495.603912 
	C409.512115,499.950470 404.161102,503.981384 398.651337,507.782166 
	C397.095947,508.855072 395.075897,509.254333 392.757202,509.600586 
	C389.567749,501.160217 386.890015,493.081818 384.615845,485.002625 
	C390.095184,485.627197 393.050049,482.666016 396.071747,479.116302 
	C398.727509,475.996460 402.191559,473.564697 405.298615,470.829041 
	C408.578674,478.953064 411.858734,487.077057 415.031036,495.603912 
z"/>
<path fill="#52C1EB" opacity="1.000000" stroke="none" 
	d="
M354.005615,459.959656 
	C357.115997,455.027557 360.198395,450.077515 363.348938,445.171173 
	C364.835876,442.855652 366.453491,440.624023 368.065125,437.968506 
	C375.085815,441.996124 382.053314,446.409576 388.974854,451.492218 
	C386.138702,456.736572 383.635101,461.525818 380.442108,465.800079 
	C378.748779,468.066833 375.858551,469.439514 373.215637,471.095581 
	C366.616943,467.303436 360.311279,463.631531 354.005615,459.959656 
z"/>
<path fill="#2F72BB" opacity="1.000000" stroke="none" 
	d="
M375.707642,751.554077 
	C376.697021,757.823303 373.354828,761.959290 369.023651,766.009888 
	C355.343445,763.157776 341.846161,759.995422 328.148956,756.177368 
	C328.827393,753.656128 329.611176,751.738220 330.609924,749.939636 
	C331.675629,748.020508 332.944366,746.214111 334.124481,744.358521 
	C347.868164,746.696899 361.611877,749.035339 375.707642,751.554077 
z"/>
<path fill="#317DC4" opacity="1.000000" stroke="none" 
	d="
M333.833160,744.196289 
	C332.944366,746.214111 331.675629,748.020508 330.609924,749.939636 
	C329.611176,751.738220 328.827393,753.656128 327.910706,755.913208 
	C314.409637,751.269653 301.547913,745.196045 290.923584,734.723572 
	C290.845123,733.640869 291.079071,732.811462 290.953918,732.040466 
	C290.157990,727.137390 292.107452,725.096252 297.474976,726.030151 
	C308.561554,734.458984 320.487366,740.363220 333.833160,744.196289 
z"/>
<path fill="#3892D0" opacity="1.000000" stroke="none" 
	d="
M308.387726,661.896362 
	C308.605896,659.597107 309.184814,657.446899 310.084869,654.103821 
	C309.751190,653.267944 308.885651,651.099548 308.021210,648.559875 
	C321.426788,650.070923 334.831238,651.953186 348.618042,653.969971 
	C347.488678,659.506897 347.228180,665.668762 340.222290,668.005798 
	C330.772858,666.345520 321.690887,664.646240 312.612671,662.927429 
	C311.315430,662.681885 310.036102,662.341797 308.387726,661.896362 
z"/>
<path fill="#52C1EB" opacity="1.000000" stroke="none" 
	d="
M284.034790,586.687439 
	C273.419159,580.243103 268.823730,570.163269 272.064026,560.430359 
	C274.996033,551.623474 284.457642,546.706665 293.257446,549.417053 
	C298.318695,550.975952 302.002594,556.401062 301.582520,561.677063 
	C301.229523,566.110291 297.872711,569.888428 293.563934,570.702148 
	C289.631592,571.444702 286.279510,569.460022 286.059265,566.155334 
	C285.914917,563.989441 286.432861,562.717285 289.234375,563.284546 
	C290.689117,563.579102 292.407135,562.573303 294.006256,562.154907 
	C292.925385,560.131165 292.317902,557.015564 290.669403,556.300720 
	C286.699127,554.578979 282.847900,555.881592 280.161682,559.566833 
	C277.108002,563.756226 276.810944,569.311218 280.545013,573.929688 
	C283.720947,577.857910 287.990204,580.902039 291.618286,584.780273 
	C290.108368,585.235229 288.721954,585.066711 287.413666,585.313110 
	C286.242615,585.533630 285.157715,586.211365 284.034790,586.687439 
z"/>
<path fill="#4FB9E8" opacity="1.000000" stroke="none" 
	d="
M373.508667,471.215820 
	C375.858551,469.439514 378.748779,468.066833 380.442108,465.800079 
	C383.635101,461.525818 386.138702,456.736572 389.080414,451.795166 
	C394.468048,457.694000 399.704163,463.959076 405.119446,470.526611 
	C402.191559,473.564697 398.727509,475.996460 396.071747,479.116302 
	C393.050049,482.666016 390.095184,485.627197 384.392822,484.735840 
	C380.347076,480.051788 376.927887,475.633789 373.508667,471.215820 
z"/>
<path fill="#2D64B2" opacity="1.000000" stroke="none" 
	d="
M739.116577,469.973083 
	C743.745422,470.284943 747.730835,469.837555 750.732544,465.244202 
	C752.348206,462.771973 755.511169,460.299530 759.240662,463.349945 
	C759.506409,463.567352 761.063660,462.205750 762.042786,461.192688 
	C763.502991,463.890747 764.940796,466.974487 766.457520,470.432800 
	C763.971008,473.582977 760.895081,476.050385 758.982117,479.219757 
	C757.021790,482.467773 755.075806,484.812683 751.076355,485.031647 
	C747.950745,485.202789 745.479736,484.820038 744.813599,481.074585 
	C744.679993,480.323212 743.515991,479.755096 742.401001,478.673553 
	C741.022156,475.487457 740.069336,472.730255 739.116577,469.973083 
z"/>
<path fill="#47B2E3" opacity="1.000000" stroke="none" 
	d="
M284.308502,586.913696 
	C285.157715,586.211365 286.242615,585.533630 287.413666,585.313110 
	C288.721954,585.066711 290.108368,585.235229 291.799805,585.062927 
	C302.362640,588.535767 312.586456,592.168884 323.031860,595.880737 
	C320.909424,599.329102 317.163757,600.431152 313.462921,599.042847 
	C303.718811,595.387634 294.194244,591.147278 284.308502,586.913696 
z"/>
<path fill="#2D64B2" opacity="1.000000" stroke="none" 
	d="
M770.253113,488.532288 
	C768.416382,489.215546 766.645447,489.504486 764.714844,489.819489 
	C762.713013,484.917297 765.770508,484.879089 769.418335,484.994171 
	C769.997070,486.041168 770.158020,487.089569 770.253113,488.532288 
z"/>
<path fill="#232E9E" opacity="1.000000" stroke="none" 
	d="
M721.082275,654.810913 
	C720.810120,654.414368 720.677979,653.849915 720.768677,653.144409 
	C721.068420,653.549988 721.145386,654.096497 721.082275,654.810913 
z"/>
<path fill="#FBFDFD" opacity="1.000000" stroke="none" 
	d="
M454.442749,443.173096 
	C441.916809,441.922516 432.560577,435.791504 424.648010,426.421753 
	C419.946960,416.041656 415.505188,405.909698 411.035461,395.388031 
	C409.454285,383.202637 409.873566,371.537842 412.982483,359.985016 
	C415.540680,350.478638 420.142517,342.253662 427.547241,334.924194 
	C427.733673,336.147736 427.826019,336.753815 427.864868,338.076416 
	C426.504639,348.654846 428.070435,358.024414 432.989075,366.689392 
	C436.018097,372.025513 440.777313,375.243988 446.767456,376.577820 
	C454.735718,378.352112 462.979370,374.280548 466.721252,366.762360 
	C470.266602,359.639038 468.388885,349.066193 462.689148,344.291260 
	C461.936279,343.660522 460.908295,342.668945 460.194275,342.807343 
	C457.830200,343.265411 455.383026,343.889008 453.377045,345.117432 
	C452.957825,345.374207 453.764465,348.983002 454.909424,350.191071 
	C458.378204,353.851074 459.635101,358.063751 457.793701,362.492523 
	C456.962799,364.490936 454.234467,366.532288 452.050476,366.968140 
	C447.050293,367.966064 443.340118,365.165405 441.212555,360.774963 
	C439.784698,357.828491 438.600769,354.612946 438.115936,351.395966 
	C437.401001,346.652740 437.405762,341.801025 437.104004,336.995514 
	C437.183929,336.675293 437.273834,336.357208 437.342285,336.034546 
	C439.443237,326.131500 441.972290,323.943909 452.138031,326.527283 
	C458.491455,328.141815 464.269714,332.019592 470.609863,335.043091 
	C479.645935,343.351166 485.335510,353.405334 489.538422,364.788635 
	C492.448212,376.509552 494.816315,388.013855 493.483032,400.364594 
	C491.920898,410.239960 489.459015,419.315155 483.880463,427.288574 
	C476.819977,437.380127 467.248627,442.795288 454.442749,443.173096 
z"/>
<path fill="#5DCBEE" opacity="1.000000" stroke="none" 
	d="
M436.686951,337.004272 
	C437.405762,341.801025 437.401001,346.652740 438.115936,351.395966 
	C438.600769,354.612946 439.784698,357.828491 441.212555,360.774963 
	C443.340118,365.165405 447.050293,367.966064 452.050476,366.968140 
	C454.234467,366.532288 456.962799,364.490936 457.793701,362.492523 
	C459.635101,358.063751 458.378204,353.851074 454.909424,350.191071 
	C453.764465,348.983002 452.957825,345.374207 453.377045,345.117432 
	C455.383026,343.889008 457.830200,343.265411 460.194275,342.807343 
	C460.908295,342.668945 461.936279,343.660522 462.689148,344.291260 
	C468.388885,349.066193 470.266602,359.639038 466.721252,366.762360 
	C462.979370,374.280548 454.735718,378.352112 446.767456,376.577820 
	C440.777313,375.243988 436.018097,372.025513 432.989075,366.689392 
	C428.070435,358.024414 426.504639,348.654846 427.905090,338.397034 
	C430.755859,337.671814 433.512878,337.342407 436.686951,337.004272 
z"/>
<path fill="#FBFDFD" opacity="1.000000" stroke="none" 
	d="
M373.215637,471.095581 
	C376.927887,475.633789 380.347076,480.051788 383.989288,484.736572 
	C386.890015,493.081818 389.567749,501.160217 392.350525,509.584473 
	C392.663391,518.015076 391.837799,525.878601 387.720764,533.090027 
	C383.995789,539.614807 378.434937,543.841003 371.194519,546.564880 
	C361.549225,548.940857 352.490417,548.140991 343.496216,543.534607 
	C332.144470,536.485779 325.246185,526.360046 320.264160,514.287598 
	C318.911591,506.575775 317.717621,499.172668 316.523651,491.769562 
	C316.990051,491.573730 317.456451,491.377869 317.922821,491.182037 
	C319.349731,492.790802 320.776611,494.399597 322.601990,496.507812 
	C327.575897,500.434387 331.735077,504.775818 336.817413,507.089600 
	C346.091858,511.311920 357.224670,506.658875 360.828644,498.111969 
	C364.343201,489.777069 360.377930,478.424103 352.108704,474.691162 
	C349.093262,473.329895 345.280060,472.771423 342.037354,473.248901 
	C340.168915,473.524048 337.646851,476.430756 337.319366,478.459686 
	C336.815399,481.581665 339.553375,482.395416 342.451385,481.848206 
	C343.088074,481.727997 343.783203,481.812866 344.437134,481.904907 
	C349.095856,482.560608 352.581635,487.656189 351.842773,492.697571 
	C351.188293,497.163300 347.128845,499.837494 342.040314,498.154114 
	C338.337189,496.929016 335.022675,494.428802 331.671082,492.284271 
	C330.026672,491.232086 328.691956,489.696045 327.217072,488.378967 
	C325.757355,485.992645 324.413666,483.525146 322.812683,481.237701 
	C319.885468,477.055328 320.311554,473.259186 323.614105,469.511322 
	C331.590302,460.459503 341.446655,457.357635 353.587097,459.973999 
	C360.311279,463.631531 366.616943,467.303436 373.215637,471.095581 
z"/>
<path fill="#52C1EB" opacity="1.000000" stroke="none" 
	d="
M327.077209,488.746246 
	C328.691956,489.696045 330.026672,491.232086 331.671082,492.284271 
	C335.022675,494.428802 338.337189,496.929016 342.040314,498.154114 
	C347.128845,499.837494 351.188293,497.163300 351.842773,492.697571 
	C352.581635,487.656189 349.095856,482.560608 344.437134,481.904907 
	C343.783203,481.812866 343.088074,481.727997 342.451385,481.848206 
	C339.553375,482.395416 336.815399,481.581665 337.319366,478.459686 
	C337.646851,476.430756 340.168915,473.524048 342.037354,473.248901 
	C345.280060,472.771423 349.093262,473.329895 352.108704,474.691162 
	C360.377930,478.424103 364.343201,489.777069 360.828644,498.111969 
	C357.224670,506.658875 346.091858,511.311920 336.817413,507.089600 
	C331.735077,504.775818 327.575897,500.434387 322.888794,496.708679 
	C324.163879,493.977936 325.550629,491.545715 327.077209,488.746246 
z"/>
<path fill="#FAFBFB" opacity="1.000000" stroke="none" 
	d="
M738.835815,469.786774 
	C740.069336,472.730255 741.022156,475.487457 742.044495,478.624817 
	C741.073669,482.050598 740.033386,485.096191 738.695435,488.725281 
	C736.103760,492.751617 734.269653,496.663483 731.379150,499.497925 
	C728.781799,502.044861 725.206055,503.927002 721.726929,505.147858 
	C718.266907,506.362091 713.929138,505.468384 712.865662,501.785065 
	C711.993652,498.764709 712.883240,494.667328 714.365723,491.744080 
	C715.287415,489.926605 718.792114,489.453491 721.092285,488.287933 
	C722.508972,487.570038 725.051208,486.553741 724.980591,485.898743 
	C724.778503,484.025269 723.951965,481.431152 722.536072,480.666595 
	C720.554382,479.596497 717.695679,479.308624 715.425903,479.760284 
	C705.885254,481.658691 700.157959,491.447418 701.994141,502.116455 
	C703.488464,510.798676 712.342163,517.386169 721.711609,515.505554 
	C726.828003,514.478577 731.960754,511.797913 736.198914,508.663391 
	C739.785339,506.010956 742.095093,501.632355 744.969849,498.017670 
	C745.009338,498.458923 745.048828,498.900177 745.055908,500.068665 
	C743.910400,506.156708 742.797363,511.517517 741.684204,516.878357 
	C738.046753,523.178955 735.166016,530.100098 730.614441,535.651184 
	C721.119629,547.231079 708.618835,552.207947 693.739868,547.975891 
	C689.440063,546.752808 685.706604,543.538696 681.408936,541.101929 
	C668.926514,526.071655 670.496887,509.735260 676.087463,492.601257 
	C681.112183,481.907959 687.585510,472.807556 697.243286,466.249908 
	C712.348083,455.993774 727.064941,457.152252 738.835815,469.786774 
z"/>
<path fill="#2D64B2" opacity="1.000000" stroke="none" 
	d="
M745.261841,497.807922 
	C742.095093,501.632355 739.785339,506.010956 736.198914,508.663391 
	C731.960754,511.797913 726.828003,514.478577 721.711609,515.505554 
	C712.342163,517.386169 703.488464,510.798676 701.994141,502.116455 
	C700.157959,491.447418 705.885254,481.658691 715.425903,479.760284 
	C717.695679,479.308624 720.554382,479.596497 722.536072,480.666595 
	C723.951965,481.431152 724.778503,484.025269 724.980591,485.898743 
	C725.051208,486.553741 722.508972,487.570038 721.092285,488.287933 
	C718.792114,489.453491 715.287415,489.926605 714.365723,491.744080 
	C712.883240,494.667328 711.993652,498.764709 712.865662,501.785065 
	C713.929138,505.468384 718.266907,506.362091 721.726929,505.147858 
	C725.206055,503.927002 728.781799,502.044861 731.379150,499.497925 
	C734.269653,496.663483 736.103760,492.751617 738.660156,489.086884 
	C739.764221,489.239777 740.575073,489.828461 741.452515,489.954681 
	C747.122192,490.770355 748.001221,492.357239 745.261841,497.807922 
z"/>
<path fill="#2D64B2" opacity="1.000000" stroke="none" 
	d="
M742.091187,516.910278 
	C742.797363,511.517517 743.910400,506.156708 745.134644,500.391571 
	C750.591858,501.387573 751.724548,503.174835 750.301758,508.431183 
	C749.182983,512.564880 748.243530,516.993591 742.091187,516.910278 
z"/>
<path fill="#FBFDFD" opacity="1.000000" stroke="none" 
	d="
M602.460449,442.948334 
	C594.479553,440.669281 587.406250,437.582214 581.782471,431.263123 
	C577.725952,423.277039 573.946655,415.524780 570.130127,407.380066 
	C568.027710,393.332977 568.324951,379.706329 573.251526,366.769928 
	C576.405884,358.487152 581.230957,350.840607 585.476807,342.596680 
	C589.102173,338.993896 592.276978,335.329987 596.064941,332.481293 
	C608.446655,323.169586 621.229797,323.479919 634.091370,333.121948 
	C643.234314,342.662415 648.994141,353.673615 651.681519,366.684021 
	C651.597290,378.051300 651.309082,389.110229 651.051636,400.587860 
	C648.519531,407.409973 646.677307,414.231323 643.253235,420.135345 
	C634.381042,435.433228 621.458252,444.346924 602.460449,442.948334 
z"/>
</svg>